<svg xmlns="http://www.w3.org/2000/svg" version="1.1" xmlns:xlink="http://www.w3.org/1999/xlink" xmlns:svgjs="http://svgjs.dev/svgjs" width="1440" height="560" preserveAspectRatio="none" viewBox="0 0 1440 560"><g mask="url(&quot;#SvgjsMask1351&quot;)" fill="none"><rect width="1440" height="560" x="0" y="0" fill="url(&quot;#SvgjsLinearGradient1352&quot;)"></rect><path d="M1440 0L968.94 0L1440 89.19z" fill="rgba(255, 255, 255, .1)"></path><path d="M968.94 0L1440 89.19L1440 108.9L582.59 0z" fill="rgba(255, 255, 255, .075)"></path><path d="M582.5899999999999 0L1440 108.9L1440 342.3L563.6299999999999 0z" fill="rgba(255, 255, 255, .05)"></path><path d="M563.6299999999999 0L1440 342.3L1440 381.12L457.6299999999999 0z" fill="rgba(255, 255, 255, .025)"></path><path d="M0 560L570.47 560L0 369.03999999999996z" fill="rgba(0, 0, 0, .1)"></path><path d="M0 369.03999999999996L570.47 560L602.4100000000001 560L0 250.64999999999998z" fill="rgba(0, 0, 0, .075)"></path><path d="M0 250.64999999999998L602.4100000000001 560L706.5500000000001 560L0 205.54999999999998z" fill="rgba(0, 0, 0, .05)"></path><path d="M0 205.54999999999995L706.5500000000001 560L1198.43 560L0 186.97999999999996z" fill="rgba(0, 0, 0, .025)"></path></g><defs><mask id="SvgjsMask1351"><rect width="1440" height="560" fill="#ffffff"></rect></mask><linearGradient x1="15.28%" y1="-39.29%" x2="84.72%" y2="139.29%" gradientUnits="userSpaceOnUse" id="SvgjsLinearGradient1352"><stop stop-color="#0e2a47" offset="0"></stop><stop stop-color="rgba(0, 83, 190, 1)" offset="1"></stop></linearGradient></defs></svg>